<mxfile host="app.diagrams.net" agent="Mozilla/5.0 (Windows NT 10.0; Win64; x64) AppleWebKit/537.36 (KHTML, like Gecko) Chrome/127.0.0.0 Safari/537.36 OPR/113.0.0.0" version="24.8.0">
  <diagram id="C5RBs43oDa-KdzZeNtuy" name="Page-1">
    <mxGraphModel dx="1682" dy="912" grid="1" gridSize="10" guides="1" tooltips="1" connect="1" arrows="1" fold="1" page="1" pageScale="1" pageWidth="827" pageHeight="1169" math="0" shadow="0">
      <root>
        <mxCell id="WIyWlLk6GJQsqaUBKTNV-0" />
        <mxCell id="WIyWlLk6GJQsqaUBKTNV-1" parent="WIyWlLk6GJQsqaUBKTNV-0" />
        <mxCell id="R9I_XVuAjR1Jl8FLP7-6-0" value="Trapesium" style="ellipse;whiteSpace=wrap;html=1;" vertex="1" parent="WIyWlLk6GJQsqaUBKTNV-1">
          <mxGeometry x="165" y="70" width="110" height="50" as="geometry" />
        </mxCell>
        <mxCell id="R9I_XVuAjR1Jl8FLP7-6-1" value="int pilihan" style="shape=hexagon;perimeter=hexagonPerimeter2;whiteSpace=wrap;html=1;fixedSize=1;" vertex="1" parent="WIyWlLk6GJQsqaUBKTNV-1">
          <mxGeometry x="155" y="170" width="130" height="70" as="geometry" />
        </mxCell>
        <mxCell id="R9I_XVuAjR1Jl8FLP7-6-6" value="" style="endArrow=classic;html=1;rounded=0;exitX=0.5;exitY=1;exitDx=0;exitDy=0;entryX=0.5;entryY=0;entryDx=0;entryDy=0;" edge="1" parent="WIyWlLk6GJQsqaUBKTNV-1" source="R9I_XVuAjR1Jl8FLP7-6-1">
          <mxGeometry width="50" height="50" relative="1" as="geometry">
            <mxPoint x="40" y="320" as="sourcePoint" />
            <mxPoint x="220" y="280" as="targetPoint" />
          </mxGeometry>
        </mxCell>
        <mxCell id="R9I_XVuAjR1Jl8FLP7-6-7" value="" style="endArrow=classic;html=1;rounded=0;exitX=0.5;exitY=1;exitDx=0;exitDy=0;entryX=0.5;entryY=0;entryDx=0;entryDy=0;" edge="1" parent="WIyWlLk6GJQsqaUBKTNV-1" source="R9I_XVuAjR1Jl8FLP7-6-0" target="R9I_XVuAjR1Jl8FLP7-6-1">
          <mxGeometry width="50" height="50" relative="1" as="geometry">
            <mxPoint x="160" y="190" as="sourcePoint" />
            <mxPoint x="210" y="140" as="targetPoint" />
          </mxGeometry>
        </mxCell>
        <mxCell id="R9I_XVuAjR1Jl8FLP7-6-9" value="Menu&amp;nbsp;&lt;div&gt;Trapesium&lt;/div&gt;" style="shape=parallelogram;perimeter=parallelogramPerimeter;whiteSpace=wrap;html=1;fixedSize=1;" vertex="1" parent="WIyWlLk6GJQsqaUBKTNV-1">
          <mxGeometry x="160" y="280" width="120" height="60" as="geometry" />
        </mxCell>
        <mxCell id="R9I_XVuAjR1Jl8FLP7-6-10" value="Input&lt;div&gt;pilihan&lt;/div&gt;" style="shape=parallelogram;perimeter=parallelogramPerimeter;whiteSpace=wrap;html=1;fixedSize=1;" vertex="1" parent="WIyWlLk6GJQsqaUBKTNV-1">
          <mxGeometry x="160" y="380" width="120" height="60" as="geometry" />
        </mxCell>
        <mxCell id="R9I_XVuAjR1Jl8FLP7-6-11" value="" style="endArrow=classic;html=1;rounded=0;exitX=0.5;exitY=1;exitDx=0;exitDy=0;entryX=0.5;entryY=0;entryDx=0;entryDy=0;" edge="1" parent="WIyWlLk6GJQsqaUBKTNV-1">
          <mxGeometry width="50" height="50" relative="1" as="geometry">
            <mxPoint x="219.58" y="340" as="sourcePoint" />
            <mxPoint x="219.58" y="380" as="targetPoint" />
          </mxGeometry>
        </mxCell>
        <mxCell id="R9I_XVuAjR1Jl8FLP7-6-12" value="pilihan == 1?" style="rhombus;whiteSpace=wrap;html=1;" vertex="1" parent="WIyWlLk6GJQsqaUBKTNV-1">
          <mxGeometry x="167.5" y="480" width="105" height="100" as="geometry" />
        </mxCell>
        <mxCell id="R9I_XVuAjR1Jl8FLP7-6-13" value="" style="endArrow=classic;html=1;rounded=0;exitX=0.5;exitY=1;exitDx=0;exitDy=0;entryX=0.5;entryY=0;entryDx=0;entryDy=0;" edge="1" parent="WIyWlLk6GJQsqaUBKTNV-1" source="R9I_XVuAjR1Jl8FLP7-6-10" target="R9I_XVuAjR1Jl8FLP7-6-12">
          <mxGeometry width="50" height="50" relative="1" as="geometry">
            <mxPoint x="120" y="540" as="sourcePoint" />
            <mxPoint x="170" y="490" as="targetPoint" />
          </mxGeometry>
        </mxCell>
        <mxCell id="R9I_XVuAjR1Jl8FLP7-6-15" value="pilihan == 2?" style="rhombus;whiteSpace=wrap;html=1;" vertex="1" parent="WIyWlLk6GJQsqaUBKTNV-1">
          <mxGeometry x="330" y="480" width="105" height="100" as="geometry" />
        </mxCell>
        <mxCell id="R9I_XVuAjR1Jl8FLP7-6-16" value="" style="endArrow=classic;html=1;rounded=0;exitX=0.5;exitY=1;exitDx=0;exitDy=0;" edge="1" parent="WIyWlLk6GJQsqaUBKTNV-1" source="R9I_XVuAjR1Jl8FLP7-6-12">
          <mxGeometry width="50" height="50" relative="1" as="geometry">
            <mxPoint x="150" y="700" as="sourcePoint" />
            <mxPoint x="220" y="640" as="targetPoint" />
          </mxGeometry>
        </mxCell>
        <mxCell id="R9I_XVuAjR1Jl8FLP7-6-17" value="" style="endArrow=classic;html=1;rounded=0;exitX=1;exitY=0.5;exitDx=0;exitDy=0;entryX=0;entryY=0.5;entryDx=0;entryDy=0;" edge="1" parent="WIyWlLk6GJQsqaUBKTNV-1" source="R9I_XVuAjR1Jl8FLP7-6-12" target="R9I_XVuAjR1Jl8FLP7-6-15">
          <mxGeometry width="50" height="50" relative="1" as="geometry">
            <mxPoint x="260" y="650" as="sourcePoint" />
            <mxPoint x="310" y="600" as="targetPoint" />
          </mxGeometry>
        </mxCell>
        <mxCell id="R9I_XVuAjR1Jl8FLP7-6-18" value="N" style="text;html=1;align=center;verticalAlign=middle;whiteSpace=wrap;rounded=0;" vertex="1" parent="WIyWlLk6GJQsqaUBKTNV-1">
          <mxGeometry x="280" y="510" width="30" height="20" as="geometry" />
        </mxCell>
        <mxCell id="R9I_XVuAjR1Jl8FLP7-6-19" value="Y" style="text;html=1;align=center;verticalAlign=middle;whiteSpace=wrap;rounded=0;" vertex="1" parent="WIyWlLk6GJQsqaUBKTNV-1">
          <mxGeometry x="220" y="590" width="30" height="20" as="geometry" />
        </mxCell>
        <mxCell id="R9I_XVuAjR1Jl8FLP7-6-24" value="" style="endArrow=classic;html=1;rounded=0;entryX=1;entryY=0.5;entryDx=0;entryDy=0;exitX=1;exitY=0.5;exitDx=0;exitDy=0;" edge="1" parent="WIyWlLk6GJQsqaUBKTNV-1" source="R9I_XVuAjR1Jl8FLP7-6-31" target="R9I_XVuAjR1Jl8FLP7-6-10">
          <mxGeometry width="50" height="50" relative="1" as="geometry">
            <mxPoint x="570" y="530" as="sourcePoint" />
            <mxPoint x="460" y="410" as="targetPoint" />
            <Array as="points">
              <mxPoint x="650" y="530" />
              <mxPoint x="650" y="410" />
            </Array>
          </mxGeometry>
        </mxCell>
        <mxCell id="R9I_XVuAjR1Jl8FLP7-6-28" value="" style="endArrow=classic;html=1;rounded=0;exitX=0.5;exitY=1;exitDx=0;exitDy=0;" edge="1" parent="WIyWlLk6GJQsqaUBKTNV-1">
          <mxGeometry width="50" height="50" relative="1" as="geometry">
            <mxPoint x="382.42" y="580" as="sourcePoint" />
            <mxPoint x="382.42" y="640" as="targetPoint" />
          </mxGeometry>
        </mxCell>
        <mxCell id="R9I_XVuAjR1Jl8FLP7-6-29" value="Y" style="text;html=1;align=center;verticalAlign=middle;whiteSpace=wrap;rounded=0;" vertex="1" parent="WIyWlLk6GJQsqaUBKTNV-1">
          <mxGeometry x="383" y="590" width="30" height="20" as="geometry" />
        </mxCell>
        <mxCell id="R9I_XVuAjR1Jl8FLP7-6-30" value="N" style="text;html=1;align=center;verticalAlign=middle;whiteSpace=wrap;rounded=0;" vertex="1" parent="WIyWlLk6GJQsqaUBKTNV-1">
          <mxGeometry x="440" y="510" width="30" height="20" as="geometry" />
        </mxCell>
        <mxCell id="R9I_XVuAjR1Jl8FLP7-6-31" value="Output&lt;div&gt;Pilihan Invalid&lt;/div&gt;" style="shape=parallelogram;perimeter=parallelogramPerimeter;whiteSpace=wrap;html=1;fixedSize=1;" vertex="1" parent="WIyWlLk6GJQsqaUBKTNV-1">
          <mxGeometry x="490" y="500" width="120" height="60" as="geometry" />
        </mxCell>
        <mxCell id="R9I_XVuAjR1Jl8FLP7-6-33" value="" style="endArrow=classic;html=1;rounded=0;exitX=1;exitY=0.5;exitDx=0;exitDy=0;entryX=0;entryY=0.5;entryDx=0;entryDy=0;" edge="1" parent="WIyWlLk6GJQsqaUBKTNV-1" source="R9I_XVuAjR1Jl8FLP7-6-15" target="R9I_XVuAjR1Jl8FLP7-6-31">
          <mxGeometry width="50" height="50" relative="1" as="geometry">
            <mxPoint x="440" y="600" as="sourcePoint" />
            <mxPoint x="490" y="550" as="targetPoint" />
          </mxGeometry>
        </mxCell>
        <mxCell id="R9I_XVuAjR1Jl8FLP7-6-34" value="Luas&amp;nbsp;&lt;div&gt;Trapesium&lt;/div&gt;" style="shape=process;whiteSpace=wrap;html=1;backgroundOutline=1;" vertex="1" parent="WIyWlLk6GJQsqaUBKTNV-1">
          <mxGeometry x="160" y="640" width="120" height="60" as="geometry" />
        </mxCell>
        <mxCell id="R9I_XVuAjR1Jl8FLP7-6-35" value="Keliling Trapesium" style="shape=process;whiteSpace=wrap;html=1;backgroundOutline=1;" vertex="1" parent="WIyWlLk6GJQsqaUBKTNV-1">
          <mxGeometry x="322.5" y="640" width="120" height="60" as="geometry" />
        </mxCell>
        <mxCell id="R9I_XVuAjR1Jl8FLP7-6-36" value="Return" style="ellipse;whiteSpace=wrap;html=1;" vertex="1" parent="WIyWlLk6GJQsqaUBKTNV-1">
          <mxGeometry x="250" y="800" width="110" height="50" as="geometry" />
        </mxCell>
        <mxCell id="R9I_XVuAjR1Jl8FLP7-6-38" value="" style="endArrow=classic;html=1;rounded=0;entryX=0.5;entryY=0;entryDx=0;entryDy=0;exitX=0.5;exitY=1;exitDx=0;exitDy=0;" edge="1" parent="WIyWlLk6GJQsqaUBKTNV-1" source="R9I_XVuAjR1Jl8FLP7-6-34" target="R9I_XVuAjR1Jl8FLP7-6-36">
          <mxGeometry width="50" height="50" relative="1" as="geometry">
            <mxPoint x="270" y="800" as="sourcePoint" />
            <mxPoint x="320" y="750" as="targetPoint" />
            <Array as="points">
              <mxPoint x="220" y="760" />
              <mxPoint x="305" y="760" />
            </Array>
          </mxGeometry>
        </mxCell>
        <mxCell id="R9I_XVuAjR1Jl8FLP7-6-40" value="" style="endArrow=classic;html=1;rounded=0;exitX=0.5;exitY=1;exitDx=0;exitDy=0;entryX=0.5;entryY=0;entryDx=0;entryDy=0;" edge="1" parent="WIyWlLk6GJQsqaUBKTNV-1" source="R9I_XVuAjR1Jl8FLP7-6-35" target="R9I_XVuAjR1Jl8FLP7-6-36">
          <mxGeometry width="50" height="50" relative="1" as="geometry">
            <mxPoint x="320" y="770" as="sourcePoint" />
            <mxPoint x="370" y="720" as="targetPoint" />
            <Array as="points">
              <mxPoint x="383" y="760" />
              <mxPoint x="305" y="760" />
            </Array>
          </mxGeometry>
        </mxCell>
        <mxCell id="R9I_XVuAjR1Jl8FLP7-6-66" value="Lingkaran" style="ellipse;whiteSpace=wrap;html=1;" vertex="1" parent="WIyWlLk6GJQsqaUBKTNV-1">
          <mxGeometry x="850" y="80" width="110" height="50" as="geometry" />
        </mxCell>
        <mxCell id="R9I_XVuAjR1Jl8FLP7-6-67" value="int pilihan" style="shape=hexagon;perimeter=hexagonPerimeter2;whiteSpace=wrap;html=1;fixedSize=1;" vertex="1" parent="WIyWlLk6GJQsqaUBKTNV-1">
          <mxGeometry x="840" y="180" width="130" height="70" as="geometry" />
        </mxCell>
        <mxCell id="R9I_XVuAjR1Jl8FLP7-6-68" value="" style="endArrow=classic;html=1;rounded=0;exitX=0.5;exitY=1;exitDx=0;exitDy=0;entryX=0.5;entryY=0;entryDx=0;entryDy=0;" edge="1" parent="WIyWlLk6GJQsqaUBKTNV-1" source="R9I_XVuAjR1Jl8FLP7-6-67">
          <mxGeometry width="50" height="50" relative="1" as="geometry">
            <mxPoint x="725" y="330" as="sourcePoint" />
            <mxPoint x="905" y="290" as="targetPoint" />
          </mxGeometry>
        </mxCell>
        <mxCell id="R9I_XVuAjR1Jl8FLP7-6-69" value="" style="endArrow=classic;html=1;rounded=0;exitX=0.5;exitY=1;exitDx=0;exitDy=0;entryX=0.5;entryY=0;entryDx=0;entryDy=0;" edge="1" parent="WIyWlLk6GJQsqaUBKTNV-1" source="R9I_XVuAjR1Jl8FLP7-6-66" target="R9I_XVuAjR1Jl8FLP7-6-67">
          <mxGeometry width="50" height="50" relative="1" as="geometry">
            <mxPoint x="845" y="200" as="sourcePoint" />
            <mxPoint x="895" y="150" as="targetPoint" />
          </mxGeometry>
        </mxCell>
        <mxCell id="R9I_XVuAjR1Jl8FLP7-6-70" value="Menu&amp;nbsp;&lt;div&gt;Lingkaran&lt;/div&gt;" style="shape=parallelogram;perimeter=parallelogramPerimeter;whiteSpace=wrap;html=1;fixedSize=1;" vertex="1" parent="WIyWlLk6GJQsqaUBKTNV-1">
          <mxGeometry x="845" y="290" width="120" height="60" as="geometry" />
        </mxCell>
        <mxCell id="R9I_XVuAjR1Jl8FLP7-6-71" value="Input&lt;div&gt;pilihan&lt;/div&gt;" style="shape=parallelogram;perimeter=parallelogramPerimeter;whiteSpace=wrap;html=1;fixedSize=1;" vertex="1" parent="WIyWlLk6GJQsqaUBKTNV-1">
          <mxGeometry x="845" y="390" width="120" height="60" as="geometry" />
        </mxCell>
        <mxCell id="R9I_XVuAjR1Jl8FLP7-6-72" value="" style="endArrow=classic;html=1;rounded=0;exitX=0.5;exitY=1;exitDx=0;exitDy=0;entryX=0.5;entryY=0;entryDx=0;entryDy=0;" edge="1" parent="WIyWlLk6GJQsqaUBKTNV-1">
          <mxGeometry width="50" height="50" relative="1" as="geometry">
            <mxPoint x="904.58" y="350" as="sourcePoint" />
            <mxPoint x="904.58" y="390" as="targetPoint" />
          </mxGeometry>
        </mxCell>
        <mxCell id="R9I_XVuAjR1Jl8FLP7-6-73" value="pilihan == 1?" style="rhombus;whiteSpace=wrap;html=1;" vertex="1" parent="WIyWlLk6GJQsqaUBKTNV-1">
          <mxGeometry x="852.5" y="490" width="105" height="100" as="geometry" />
        </mxCell>
        <mxCell id="R9I_XVuAjR1Jl8FLP7-6-74" value="" style="endArrow=classic;html=1;rounded=0;exitX=0.5;exitY=1;exitDx=0;exitDy=0;entryX=0.5;entryY=0;entryDx=0;entryDy=0;" edge="1" parent="WIyWlLk6GJQsqaUBKTNV-1" source="R9I_XVuAjR1Jl8FLP7-6-71" target="R9I_XVuAjR1Jl8FLP7-6-73">
          <mxGeometry width="50" height="50" relative="1" as="geometry">
            <mxPoint x="805" y="550" as="sourcePoint" />
            <mxPoint x="855" y="500" as="targetPoint" />
          </mxGeometry>
        </mxCell>
        <mxCell id="R9I_XVuAjR1Jl8FLP7-6-75" value="pilihan == 2?" style="rhombus;whiteSpace=wrap;html=1;" vertex="1" parent="WIyWlLk6GJQsqaUBKTNV-1">
          <mxGeometry x="1015" y="490" width="105" height="100" as="geometry" />
        </mxCell>
        <mxCell id="R9I_XVuAjR1Jl8FLP7-6-76" value="" style="endArrow=classic;html=1;rounded=0;exitX=0.5;exitY=1;exitDx=0;exitDy=0;" edge="1" parent="WIyWlLk6GJQsqaUBKTNV-1" source="R9I_XVuAjR1Jl8FLP7-6-73">
          <mxGeometry width="50" height="50" relative="1" as="geometry">
            <mxPoint x="835" y="710" as="sourcePoint" />
            <mxPoint x="905" y="650" as="targetPoint" />
          </mxGeometry>
        </mxCell>
        <mxCell id="R9I_XVuAjR1Jl8FLP7-6-77" value="" style="endArrow=classic;html=1;rounded=0;exitX=1;exitY=0.5;exitDx=0;exitDy=0;entryX=0;entryY=0.5;entryDx=0;entryDy=0;" edge="1" parent="WIyWlLk6GJQsqaUBKTNV-1" source="R9I_XVuAjR1Jl8FLP7-6-73" target="R9I_XVuAjR1Jl8FLP7-6-75">
          <mxGeometry width="50" height="50" relative="1" as="geometry">
            <mxPoint x="945" y="660" as="sourcePoint" />
            <mxPoint x="995" y="610" as="targetPoint" />
          </mxGeometry>
        </mxCell>
        <mxCell id="R9I_XVuAjR1Jl8FLP7-6-78" value="N" style="text;html=1;align=center;verticalAlign=middle;whiteSpace=wrap;rounded=0;" vertex="1" parent="WIyWlLk6GJQsqaUBKTNV-1">
          <mxGeometry x="965" y="520" width="30" height="20" as="geometry" />
        </mxCell>
        <mxCell id="R9I_XVuAjR1Jl8FLP7-6-79" value="Y" style="text;html=1;align=center;verticalAlign=middle;whiteSpace=wrap;rounded=0;" vertex="1" parent="WIyWlLk6GJQsqaUBKTNV-1">
          <mxGeometry x="905" y="600" width="30" height="20" as="geometry" />
        </mxCell>
        <mxCell id="R9I_XVuAjR1Jl8FLP7-6-80" value="" style="endArrow=classic;html=1;rounded=0;entryX=1;entryY=0.5;entryDx=0;entryDy=0;exitX=1;exitY=0.5;exitDx=0;exitDy=0;" edge="1" parent="WIyWlLk6GJQsqaUBKTNV-1" source="R9I_XVuAjR1Jl8FLP7-6-84" target="R9I_XVuAjR1Jl8FLP7-6-71">
          <mxGeometry width="50" height="50" relative="1" as="geometry">
            <mxPoint x="1255" y="540" as="sourcePoint" />
            <mxPoint x="1145" y="420" as="targetPoint" />
            <Array as="points">
              <mxPoint x="1335" y="540" />
              <mxPoint x="1335" y="420" />
            </Array>
          </mxGeometry>
        </mxCell>
        <mxCell id="R9I_XVuAjR1Jl8FLP7-6-81" value="" style="endArrow=classic;html=1;rounded=0;exitX=0.5;exitY=1;exitDx=0;exitDy=0;" edge="1" parent="WIyWlLk6GJQsqaUBKTNV-1">
          <mxGeometry width="50" height="50" relative="1" as="geometry">
            <mxPoint x="1067.42" y="590" as="sourcePoint" />
            <mxPoint x="1067.42" y="650" as="targetPoint" />
          </mxGeometry>
        </mxCell>
        <mxCell id="R9I_XVuAjR1Jl8FLP7-6-82" value="Y" style="text;html=1;align=center;verticalAlign=middle;whiteSpace=wrap;rounded=0;" vertex="1" parent="WIyWlLk6GJQsqaUBKTNV-1">
          <mxGeometry x="1068" y="600" width="30" height="20" as="geometry" />
        </mxCell>
        <mxCell id="R9I_XVuAjR1Jl8FLP7-6-83" value="N" style="text;html=1;align=center;verticalAlign=middle;whiteSpace=wrap;rounded=0;" vertex="1" parent="WIyWlLk6GJQsqaUBKTNV-1">
          <mxGeometry x="1125" y="520" width="30" height="20" as="geometry" />
        </mxCell>
        <mxCell id="R9I_XVuAjR1Jl8FLP7-6-84" value="Output&lt;div&gt;Pilihan Invalid&lt;/div&gt;" style="shape=parallelogram;perimeter=parallelogramPerimeter;whiteSpace=wrap;html=1;fixedSize=1;" vertex="1" parent="WIyWlLk6GJQsqaUBKTNV-1">
          <mxGeometry x="1175" y="510" width="120" height="60" as="geometry" />
        </mxCell>
        <mxCell id="R9I_XVuAjR1Jl8FLP7-6-85" value="" style="endArrow=classic;html=1;rounded=0;exitX=1;exitY=0.5;exitDx=0;exitDy=0;entryX=0;entryY=0.5;entryDx=0;entryDy=0;" edge="1" parent="WIyWlLk6GJQsqaUBKTNV-1" source="R9I_XVuAjR1Jl8FLP7-6-75" target="R9I_XVuAjR1Jl8FLP7-6-84">
          <mxGeometry width="50" height="50" relative="1" as="geometry">
            <mxPoint x="1125" y="610" as="sourcePoint" />
            <mxPoint x="1175" y="560" as="targetPoint" />
          </mxGeometry>
        </mxCell>
        <mxCell id="R9I_XVuAjR1Jl8FLP7-6-86" value="Luas&amp;nbsp;&lt;div&gt;Lingkaran&lt;/div&gt;" style="shape=process;whiteSpace=wrap;html=1;backgroundOutline=1;" vertex="1" parent="WIyWlLk6GJQsqaUBKTNV-1">
          <mxGeometry x="845" y="650" width="120" height="60" as="geometry" />
        </mxCell>
        <mxCell id="R9I_XVuAjR1Jl8FLP7-6-87" value="Keliling Lingkaran" style="shape=process;whiteSpace=wrap;html=1;backgroundOutline=1;" vertex="1" parent="WIyWlLk6GJQsqaUBKTNV-1">
          <mxGeometry x="1007.5" y="650" width="120" height="60" as="geometry" />
        </mxCell>
        <mxCell id="R9I_XVuAjR1Jl8FLP7-6-88" value="Return" style="ellipse;whiteSpace=wrap;html=1;" vertex="1" parent="WIyWlLk6GJQsqaUBKTNV-1">
          <mxGeometry x="935" y="810" width="110" height="50" as="geometry" />
        </mxCell>
        <mxCell id="R9I_XVuAjR1Jl8FLP7-6-89" value="" style="endArrow=classic;html=1;rounded=0;entryX=0.5;entryY=0;entryDx=0;entryDy=0;exitX=0.5;exitY=1;exitDx=0;exitDy=0;" edge="1" parent="WIyWlLk6GJQsqaUBKTNV-1" source="R9I_XVuAjR1Jl8FLP7-6-86" target="R9I_XVuAjR1Jl8FLP7-6-88">
          <mxGeometry width="50" height="50" relative="1" as="geometry">
            <mxPoint x="955" y="810" as="sourcePoint" />
            <mxPoint x="1005" y="760" as="targetPoint" />
            <Array as="points">
              <mxPoint x="905" y="770" />
              <mxPoint x="990" y="770" />
            </Array>
          </mxGeometry>
        </mxCell>
        <mxCell id="R9I_XVuAjR1Jl8FLP7-6-90" value="" style="endArrow=classic;html=1;rounded=0;exitX=0.5;exitY=1;exitDx=0;exitDy=0;entryX=0.5;entryY=0;entryDx=0;entryDy=0;" edge="1" parent="WIyWlLk6GJQsqaUBKTNV-1" source="R9I_XVuAjR1Jl8FLP7-6-87" target="R9I_XVuAjR1Jl8FLP7-6-88">
          <mxGeometry width="50" height="50" relative="1" as="geometry">
            <mxPoint x="1005" y="780" as="sourcePoint" />
            <mxPoint x="1055" y="730" as="targetPoint" />
            <Array as="points">
              <mxPoint x="1068" y="770" />
              <mxPoint x="990" y="770" />
            </Array>
          </mxGeometry>
        </mxCell>
      </root>
    </mxGraphModel>
  </diagram>
</mxfile>
